<svg xmlns="http://www.w3.org/2000/svg" width="393.77" height="35" viewBox="0 0 393.77 35"><rect class="svg__rect" x="0" y="0" width="229.65" height="35" fill="#31C4F3"/><rect class="svg__rect" x="227.65" y="0" width="166.11999999999998" height="35" fill="#389AD5"/><path class="svg__text" d="M13.78 19.42L13.78 19.42L15.27 19.42Q15.27 20.15 15.75 20.55Q16.23 20.95 17.12 20.95L17.12 20.95Q17.90 20.95 18.29 20.63Q18.68 20.32 18.68 19.80L18.68 19.80Q18.68 19.24 18.28 18.94Q17.89 18.63 16.85 18.32Q15.82 18.01 15.21 17.63L15.21 17.63Q14.05 16.90 14.05 15.72L14.05 15.72Q14.05 14.69 14.89 14.02Q15.73 13.35 17.07 13.35L17.07 13.35Q17.96 13.35 18.66 13.68Q19.36 14.01 19.75 14.61Q20.15 15.22 20.15 15.96L20.15 15.96L18.68 15.96Q18.68 15.29 18.26 14.91Q17.84 14.54 17.06 14.54L17.06 14.54Q16.33 14.54 15.93 14.85Q15.53 15.16 15.53 15.71L15.53 15.71Q15.53 16.18 15.96 16.50Q16.40 16.81 17.39 17.10Q18.39 17.40 18.99 17.78Q19.60 18.16 19.88 18.65Q20.16 19.13 20.16 19.79L20.16 19.79Q20.16 20.86 19.34 21.49Q18.52 22.12 17.12 22.12L17.12 22.12Q16.20 22.12 15.42 21.77Q14.64 21.43 14.21 20.83Q13.78 20.22 13.78 19.42ZM25.92 22L24.45 22L24.45 13.47L26.37 13.47L28.83 20.01L31.29 13.47L33.20 13.47L33.20 22L31.73 22L31.73 19.19L31.87 15.43L29.35 22L28.29 22L25.78 15.43L25.92 19.19L25.92 22ZM37.67 18.00L37.67 18.00L37.67 17.52Q37.67 16.28 38.11 15.32Q38.56 14.37 39.36 13.86Q40.17 13.35 41.21 13.35Q42.25 13.35 43.06 13.85Q43.87 14.35 44.31 15.29Q44.74 16.23 44.75 17.48L44.75 17.48L44.75 17.96Q44.75 19.21 44.32 20.16Q43.88 21.10 43.08 21.61Q42.27 22.12 41.22 22.12L41.22 22.12Q40.19 22.12 39.37 21.61Q38.56 21.10 38.12 20.17Q37.68 19.23 37.67 18.00ZM39.15 17.46L39.15 17.96Q39.15 19.36 39.70 20.13Q40.25 20.90 41.22 20.90L41.22 20.90Q42.21 20.90 42.74 20.15Q43.27 19.40 43.27 17.96L43.27 17.96L43.27 17.51Q43.27 16.09 42.73 15.34Q42.20 14.58 41.21 14.58L41.21 14.58Q40.25 14.58 39.71 15.33Q39.17 16.09 39.15 17.46L39.15 17.46ZM48.95 18.00L48.95 18.00L48.95 17.52Q48.95 16.28 49.39 15.32Q49.83 14.37 50.64 13.86Q51.44 13.35 52.48 13.35Q53.53 13.35 54.33 13.85Q55.14 14.35 55.58 15.29Q56.02 16.23 56.02 17.48L56.02 17.48L56.02 17.96Q56.02 19.21 55.59 20.16Q55.16 21.10 54.35 21.61Q53.55 22.12 52.50 22.12L52.50 22.12Q51.46 22.12 50.65 21.61Q49.84 21.10 49.39 20.17Q48.95 19.23 48.95 18.00ZM50.43 17.46L50.43 17.96Q50.43 19.36 50.98 20.13Q51.52 20.90 52.50 20.90L52.50 20.90Q53.48 20.90 54.01 20.15Q54.54 19.40 54.54 17.96L54.54 17.96L54.54 17.51Q54.54 16.09 54.01 15.34Q53.47 14.58 52.48 14.58L52.48 14.58Q51.52 14.58 50.98 15.33Q50.44 16.09 50.43 17.46L50.43 17.46ZM62.17 14.66L59.53 14.66L59.53 13.47L66.30 13.47L66.30 14.66L63.64 14.66L63.64 22L62.17 22L62.17 14.66ZM71.54 22L70.06 22L70.06 13.47L71.54 13.47L71.54 17.02L75.35 17.02L75.35 13.47L76.83 13.47L76.83 22L75.35 22L75.35 18.21L71.54 18.21L71.54 22ZM88.93 22L86.96 13.47L88.43 13.47L89.76 19.88L91.39 13.47L92.63 13.47L94.24 19.89L95.55 13.47L97.02 13.47L95.05 22L93.64 22L92.01 15.77L90.35 22L88.93 22ZM102.66 22L101.18 22L101.18 13.47L102.66 13.47L102.66 22ZM109.15 14.66L106.51 14.66L106.51 13.47L113.28 13.47L113.28 14.66L110.62 14.66L110.62 22L109.15 22L109.15 14.66ZM118.52 22L117.04 22L117.04 13.47L118.52 13.47L118.52 17.02L122.33 17.02L122.33 13.47L123.81 13.47L123.81 22L122.33 22L122.33 18.21L118.52 18.21L118.52 22ZM134.28 18.13L134.28 18.13L134.28 17.46Q134.28 15.53 135.21 14.44Q136.13 13.35 137.79 13.35L137.79 13.35Q139.22 13.35 140.05 14.05Q140.89 14.76 141.06 16.08L141.06 16.08L139.61 16.08Q139.36 14.54 137.82 14.54L137.82 14.54Q136.82 14.54 136.31 15.26Q135.79 15.98 135.77 17.37L135.77 17.37L135.77 18.02Q135.77 19.40 136.35 20.17Q136.94 20.93 137.97 20.93L137.97 20.93Q139.11 20.93 139.59 20.42L139.59 20.42L139.59 18.75L137.83 18.75L137.83 17.62L141.07 17.62L141.07 20.89Q140.60 21.50 139.78 21.81Q138.96 22.12 137.92 22.12L137.92 22.12Q136.85 22.12 136.02 21.63Q135.20 21.14 134.75 20.24Q134.30 19.33 134.28 18.13ZM147.17 22L145.68 22L145.68 13.47L148.95 13.47Q150.38 13.47 151.22 14.21Q152.06 14.96 152.06 16.18L152.06 16.18Q152.06 17.44 151.24 18.13Q150.41 18.83 148.93 18.83L148.93 18.83L147.17 18.83L147.17 22ZM147.17 14.66L147.17 17.64L148.95 17.64Q149.74 17.64 150.15 17.27Q150.57 16.90 150.57 16.19L150.57 16.19Q150.57 15.50 150.15 15.09Q149.73 14.68 148.99 14.66L148.99 14.66L147.17 14.66ZM157.44 22L155.72 22L158.36 17.70L155.77 13.47L157.48 13.47L159.28 16.55L161.07 13.47L162.78 13.47L160.20 17.70L162.84 22L161.11 22L159.28 18.87L157.44 22ZM168.40 22L166.92 22L166.92 13.47L168.85 13.47L171.31 20.01L173.76 13.47L175.68 13.47L175.68 22L174.20 22L174.20 19.19L174.35 15.43L171.83 22L170.77 22L168.25 15.43L168.40 19.19L168.40 22ZM181.20 22L179.66 22L182.88 13.47L184.21 13.47L187.44 22L185.89 22L185.19 20.01L181.89 20.01L181.20 22ZM183.54 15.28L182.31 18.82L184.78 18.82L183.54 15.28ZM191.15 18.13L191.15 18.13L191.15 17.46Q191.15 15.53 192.07 14.44Q193.00 13.35 194.66 13.35L194.66 13.35Q196.08 13.35 196.92 14.05Q197.76 14.76 197.93 16.08L197.93 16.08L196.47 16.08Q196.23 14.54 194.69 14.54L194.69 14.54Q193.69 14.54 193.17 15.26Q192.65 15.98 192.64 17.37L192.64 17.37L192.64 18.02Q192.64 19.40 193.22 20.17Q193.80 20.93 194.84 20.93L194.84 20.93Q195.97 20.93 196.46 20.42L196.46 20.42L196.46 18.75L194.70 18.75L194.70 17.62L197.93 17.62L197.93 20.89Q197.47 21.50 196.65 21.81Q195.83 22.12 194.79 22.12L194.79 22.12Q193.71 22.12 192.89 21.63Q192.06 21.14 191.61 20.24Q191.16 19.33 191.15 18.13ZM204.11 22L202.64 22L202.64 13.47L204.11 13.47L204.11 22ZM208.65 18.19L208.65 18.19L208.65 17.39Q208.65 16.19 209.08 15.27Q209.51 14.35 210.31 13.85Q211.11 13.35 212.16 13.35L212.16 13.35Q213.57 13.35 214.43 14.12Q215.29 14.89 215.43 16.29L215.43 16.29L213.96 16.29Q213.85 15.37 213.42 14.96Q212.99 14.55 212.16 14.55L212.16 14.55Q211.19 14.55 210.67 15.26Q210.15 15.96 210.14 17.33L210.14 17.33L210.14 18.09Q210.14 19.47 210.64 20.20Q211.13 20.92 212.09 20.92L212.09 20.92Q212.96 20.92 213.40 20.53Q213.84 20.14 213.96 19.22L213.96 19.22L215.43 19.22Q215.31 20.59 214.43 21.35Q213.55 22.12 212.09 22.12L212.09 22.12Q211.07 22.12 210.29 21.63Q209.52 21.15 209.09 20.26Q208.67 19.37 208.65 18.19Z" fill="#FFFFFF"/><path class="svg__text" d="M244.22 22L241.84 22L241.84 13.60L245.68 13.60Q246.82 13.60 247.66 13.98Q248.50 14.35 248.96 15.06Q249.41 15.76 249.41 16.71L249.41 16.71Q249.41 17.62 248.99 18.30Q248.56 18.98 247.77 19.36L247.77 19.36L249.58 22L247.04 22L245.51 19.77L244.22 19.77L244.22 22ZM244.22 15.47L244.22 17.93L245.54 17.93Q246.27 17.93 246.64 17.61Q247.01 17.29 247.01 16.71L247.01 16.71Q247.01 16.12 246.64 15.79Q246.27 15.47 245.54 15.47L245.54 15.47L244.22 15.47ZM256.58 22L254.20 22L254.20 13.60L256.58 13.60L256.58 22ZM265.73 22L261.75 22L261.75 13.60L265.73 13.60Q267.11 13.60 268.18 14.12Q269.24 14.63 269.83 15.58Q270.42 16.53 270.42 17.80L270.42 17.80Q270.42 19.07 269.83 20.02Q269.24 20.97 268.18 21.48Q267.11 22 265.73 22L265.73 22ZM264.13 15.50L264.13 20.10L265.63 20.10Q266.71 20.10 267.36 19.49Q268.02 18.88 268.02 17.80L268.02 17.80Q268.02 16.72 267.36 16.11Q266.71 15.50 265.63 15.50L265.63 15.50L264.13 15.50ZM281.89 22L275.15 22L275.15 13.60L281.74 13.60L281.74 15.44L277.50 15.44L277.50 16.85L281.24 16.85L281.24 18.63L277.50 18.63L277.50 20.17L281.89 20.17L281.89 22ZM295.75 22L293.03 13.60L295.47 13.60L297.16 18.96L298.94 13.60L301.12 13.60L302.82 19.01L304.58 13.60L306.85 13.60L304.12 22L301.58 22L299.97 16.89L298.29 22L295.75 22ZM313.74 22L311.36 22L311.36 13.60L313.74 13.60L313.74 22ZM320.71 15.48L318.12 15.48L318.12 13.60L325.64 13.60L325.64 15.48L323.08 15.48L323.08 22L320.71 22L320.71 15.48ZM332.39 22L330.02 22L330.02 13.60L332.39 13.60L332.39 16.76L335.63 16.76L335.63 13.60L338.01 13.60L338.01 22L335.63 22L335.63 18.72L332.39 18.72L332.39 22ZM352.52 22L350.14 22L350.14 13.60L353.99 13.60Q355.13 13.60 355.97 13.98Q356.80 14.35 357.26 15.06Q357.72 15.76 357.72 16.71L357.72 16.71Q357.72 17.62 357.29 18.30Q356.86 18.98 356.07 19.36L356.07 19.36L357.88 22L355.34 22L353.82 19.77L352.52 19.77L352.52 22ZM352.52 15.47L352.52 17.93L353.84 17.93Q354.57 17.93 354.94 17.61Q355.32 17.29 355.32 16.71L355.32 16.71Q355.32 16.12 354.94 15.79Q354.57 15.47 353.84 15.47L353.84 15.47L352.52 15.47ZM362.08 17.80L362.08 17.80Q362.08 16.54 362.68 15.54Q363.27 14.55 364.34 13.99Q365.41 13.43 366.75 13.43L366.75 13.43Q367.93 13.43 368.87 13.83Q369.81 14.22 370.43 14.97L370.43 14.97L368.92 16.33Q368.07 15.40 366.89 15.40L366.89 15.40Q366.88 15.40 366.88 15.40L366.88 15.40Q365.80 15.40 365.14 16.06Q364.47 16.71 364.47 17.80L364.47 17.80Q364.47 18.50 364.78 19.04Q365.08 19.59 365.62 19.89Q366.16 20.20 366.85 20.20L366.85 20.20Q367.54 20.20 368.14 19.93L368.14 19.93L368.14 17.62L370.23 17.62L370.23 21.10Q369.51 21.61 368.58 21.89Q367.64 22.17 366.71 22.17L366.71 22.17Q365.39 22.17 364.33 21.61Q363.27 21.05 362.68 20.05Q362.08 19.06 362.08 17.80ZM377.02 15.48L374.44 15.48L374.44 13.60L381.96 13.60L381.96 15.48L379.39 15.48L379.39 22L377.02 22L377.02 15.48Z" fill="#FFFFFF" /></svg>